<?xml version="1.0" encoding="utf-8"?>
<!-- Generator: Adobe Illustrator 21.1.0, SVG Export Plug-In . SVG Version: 6.00 Build 0)  -->
<svg version="1.1" id="Capa_1" xmlns="http://www.w3.org/2000/svg" xmlns:xlink="http://www.w3.org/1999/xlink" x="0px" y="0px"
	 viewBox="0 0 372.7 372.7" style="enable-background:new 0 0 372.7 372.7;" xml:space="preserve">
<path d="M264.8,118.9l-11-11c-3.7-3.7-9.7-3.7-13.4,0L107.9,240.4c-3.7,3.7-3.7,9.7,0,13.4l11,11c3.7,3.7,9.7,3.7,13.4,0
	l132.6-132.6C268.5,128.6,268.5,122.6,264.8,118.9z"/>
<path d="M167.6,145.4c0.8,2.9,4.8,6.5,7.9,3.4c6.4-6.4,16.9-16.9,21.4-21.4c4-4,5-12.4,5.6-15.9c1-6.1,3.3-11.7,7.4-15.8l48.1-48.1
	c15.7-15.7,46.7-9.9,61.9,5.3c0.2,0.2,0.4,0.4,0.5,0.6c0.2,0.2,0.4,0.4,0.6,0.5c15.1,15.3,20.6,46.4,4.8,61.9l-48.5,47.7
	c-4.1,4-9.7,6.3-15.8,7.2c-3.5,0.5-11.9,1.4-16,5.4c-4.5,4.5-15.1,14.9-21.6,21.2c-3.1,3.1,0.4,7.1,3.3,7.9
	c25.7,6.9,56.2,4.2,76.1-15.3l48.5-47.7c28.8-28.3,26.7-82.9-4.3-114.4c-0.2-0.2-0.4-0.4-0.7-0.7c-0.2-0.2-0.4-0.4-0.7-0.7
	c-31.3-31.3-85.8-33.9-114.4-5.3l-48.1,48.1C163.9,89.1,160.9,119.7,167.6,145.4z"/>
<path d="M205.1,227.3c-0.8-2.9-4.8-6.5-7.9-3.4c-6.4,6.4-16.9,16.9-21.4,21.4c-4,4-5,12.4-5.6,15.9c-1,6.1-3.3,11.7-7.4,15.8
	l-48.1,48.1c-15.7,15.7-46.7,9.9-61.9-5.3c-0.2-0.2-0.4-0.4-0.5-0.6c-0.2-0.2-0.4-0.4-0.6-0.5c-15.1-15.3-20.6-46.4-4.8-61.9
	l48.5-47.7c4.1-4,9.7-6.3,15.8-7.2c3.5-0.5,11.9-1.4,16-5.4c4.5-4.5,15.1-14.9,21.6-21.2c3.1-3.1-0.4-7.1-3.3-7.9
	c-25.7-6.9-56.2-4.2-76.1,15.3L21,230.3c-28.8,28.3-26.7,82.9,4.3,114.4c0.2,0.2,0.4,0.4,0.7,0.7c0.2,0.2,0.4,0.4,0.7,0.7
	c31.3,31.3,85.8,33.9,114.4,5.3l48.1-48.1C208.8,283.6,211.8,253,205.1,227.3z"/>
</svg>
