<?xml version="1.0" encoding="utf-8"?>
<!-- Generator: Adobe Illustrator 23.0.3, SVG Export Plug-In . SVG Version: 6.00 Build 0)  -->
<svg version="1.1" id="分離模式" xmlns="http://www.w3.org/2000/svg" xmlns:xlink="http://www.w3.org/1999/xlink" x="0px"
	 y="0px" viewBox="0 0 62.71 63.05" style="enable-background:new 0 0 62.71 63.05;" xml:space="preserve">
<style type="text/css">
	.st0{fill-rule:evenodd;clip-rule:evenodd;fill:#727270;}
</style>
<path class="st0" d="M39.67,34.76v4.01c15.29,8.8,23.04,4.4,23.04,24.28H31.83h-0.38H0C0,42.4,7.74,47.56,23.04,38.77v-3.54
	c-2.68-1.91-3.25-5.35-4.21-8.98h-0.1c-0.38,0-0.76-0.57-0.76-1.34c0-0.19,0.1-0.19,0.1-0.38c-0.29-0.38-0.58-0.95-0.77-1.72
	c-0.29-1.15-1.24-3.35-0.38-4.4c0.76-0.67,1.24,0.1,1.24,0.1c-1.05-5.83-2.58-13.48,5.54-15.87c0-4.97,19.02-2.77,21.22,5.36
	c1.05,3.15-0.29,10.42-0.29,10.42c0.29-0.48,0.67-0.67,1.05-0.28c1.05,0.67-0.1,3.73-0.38,4.68c-0.19,0.86-0.48,1.43-0.76,1.91
	l0.1,0.19c0,0.67-0.38,1.34-0.77,1.34C43.01,29.5,42.15,33.04,39.67,34.76L39.67,34.76z"/>
</svg>
