<?xml version="1.0" encoding="utf-8"?>
<!-- Generator: Adobe Illustrator 23.0.3, SVG Export Plug-In . SVG Version: 6.00 Build 0)  -->
<svg version="1.1" id="分離模式" xmlns="http://www.w3.org/2000/svg" xmlns:xlink="http://www.w3.org/1999/xlink" x="0px"
	 y="0px" viewBox="0 0 500 500" style="enable-background:new 0 0 500 500;" xml:space="preserve">
<style type="text/css">
	.st0{fill:#18B8C4;}
</style>
<path class="st0" d="M28.3,33.4c0,18.4,14.9,33.4,33.4,33.4C80.1,66.7,95,51.8,95,33.4C95,14.9,80.1,0,61.7,0
	C43.3,0,28.3,14.9,28.3,33.4z"/>
<path class="st0" d="M153.9,33.4c0,18.4,14.9,33.4,33.4,33.4c18.4,0,33.4-14.9,33.4-33.4c0-18.4-14.9-33.4-33.4-33.4
	C168.8,0,153.9,14.9,153.9,33.4z"/>
<path class="st0" d="M28.3,141.7c0,18.4,14.9,33.4,33.4,33.4c18.4,0,33.4-14.9,33.4-33.4s-14.9-33.4-33.4-33.4
	C43.3,108.3,28.3,123.3,28.3,141.7z"/>
<path class="st0" d="M153.9,141.7c0,18.4,14.9,33.4,33.4,33.4c18.4,0,33.4-14.9,33.4-33.4s-14.9-33.4-33.4-33.4
	C168.8,108.3,153.9,123.3,153.9,141.7z"/>
<path class="st0" d="M279.4,141.7c0,18.4,14.9,33.4,33.4,33.4c18.4,0,33.4-14.9,33.4-33.4s-14.9-33.4-33.4-33.4
	C294.4,108.3,279.4,123.3,279.4,141.7z"/>
<path class="st0" d="M28.3,250c0,18.4,14.9,33.4,33.4,33.4c18.4,0,33.4-14.9,33.4-33.4c0-18.4-14.9-33.4-33.4-33.4
	C43.3,216.6,28.3,231.6,28.3,250z"/>
<path class="st0" d="M153.9,250c0,18.4,14.9,33.4,33.4,33.4c18.4,0,33.4-14.9,33.4-33.4c0-18.4-14.9-33.4-33.4-33.4
	C168.8,216.6,153.9,231.6,153.9,250z"/>
<path class="st0" d="M279.4,250c0,18.4,14.9,33.4,33.4,33.4c18.4,0,33.4-14.9,33.4-33.4c0-18.4-14.9-33.4-33.4-33.4
	C294.4,216.6,279.4,231.6,279.4,250z"/>
<path class="st0" d="M405,250c0,18.4,14.9,33.4,33.4,33.4c18.4,0,33.4-14.9,33.4-33.4c0-18.4-14.9-33.4-33.4-33.4
	C419.9,216.6,405,231.6,405,250z"/>
<path class="st0" d="M28.3,358.3c0,18.4,14.9,33.4,33.4,33.4c18.4,0,33.4-14.9,33.4-33.4c0-18.4-14.9-33.4-33.4-33.4
	C43.3,325,28.3,339.9,28.3,358.3z"/>
<path class="st0" d="M153.9,358.3c0,18.4,14.9,33.4,33.4,33.4c18.4,0,33.4-14.9,33.4-33.4c0-18.4-14.9-33.4-33.4-33.4
	C168.8,325,153.9,339.9,153.9,358.3z"/>
<path class="st0" d="M279.4,358.3c0,18.4,14.9,33.4,33.4,33.4c18.4,0,33.4-14.9,33.4-33.4c0-18.4-14.9-33.4-33.4-33.4
	C294.4,325,279.4,339.9,279.4,358.3z"/>
<path class="st0" d="M28.3,466.6c0,18.4,14.9,33.4,33.4,33.4c18.4,0,33.4-14.9,33.4-33.4c0-18.4-14.9-33.4-33.4-33.4
	C43.3,433.3,28.3,448.2,28.3,466.6z"/>
<path class="st0" d="M153.9,466.6c0,18.4,14.9,33.4,33.4,33.4c18.4,0,33.4-14.9,33.4-33.4c0-18.4-14.9-33.4-33.4-33.4
	C168.8,433.3,153.9,448.2,153.9,466.6z"/>
</svg>
