<?xml version="1.0" encoding="utf-8"?>
<!-- Generator: Adobe Illustrator 23.0.3, SVG Export Plug-In . SVG Version: 6.00 Build 0)  -->
<svg version="1.1" id="Capa_1" xmlns="http://www.w3.org/2000/svg" xmlns:xlink="http://www.w3.org/1999/xlink" x="0px" y="0px"
	 viewBox="0 0 150 150" style="enable-background:new 0 0 150 150;" xml:space="preserve">
<style type="text/css">
	.st0{fill:#019E7E;}
</style>
<path class="st0" d="M131.43,18.67H18.78C8.41,18.67,0,27.08,0,37.45v75.1c0,10.37,8.41,18.78,18.78,18.78h112.66
	c10.37,0,18.78-8.41,18.78-18.78v-75.1C150.21,27.08,141.8,18.67,131.43,18.67z M100.53,68.77l39.74-34.06
	c0.28,0.88,0.55,1.76,0.55,2.73v75.1c0,0.65-0.25,1.23-0.38,1.84L100.53,68.77z M131.43,28.06c0.62,0,1.17,0.24,1.76,0.36
	L75.1,78.21L17.02,28.42c0.59-0.12,1.14-0.36,1.76-0.36H131.43z M9.76,114.39c-0.13-0.61-0.37-1.18-0.37-1.83v-75.1
	c0-0.97,0.28-1.85,0.55-2.73l39.73,34.05L9.76,114.39z M18.78,121.94c-0.95,0-1.81-0.28-2.68-0.54L56.8,74.88l15.25,13.06
	c0.88,0.76,1.97,1.14,3.05,1.14c1.09,0,2.18-0.38,3.05-1.14L93.4,74.88l40.71,46.52c-0.86,0.27-1.72,0.54-2.68,0.54H18.78z"/>
</svg>
