<?xml version="1.0" encoding="utf-8"?>
<!-- Generator: Adobe Illustrator 23.0.3, SVG Export Plug-In . SVG Version: 6.00 Build 0)  -->
<svg version="1.1" id="Layer_1" xmlns="http://www.w3.org/2000/svg" xmlns:xlink="http://www.w3.org/1999/xlink" x="0px" y="0px"
	 viewBox="0 0 336.01 209.01" style="enable-background:new 0 0 336.01 209.01;" xml:space="preserve">
<path d="M9.55,40.82c2.37,1.78,2.5,4.48,2.5,4.48l0.82,3.75l0.96,5.82l5.49,1.65v4.86H22c2.38-1.36,4.73-2.68,9.47-0.31
	c1.78,0.89,4.91,3.95,5.29,2.5c0.63-2.42-1.23-11.07-1.97-15.14c-1.18-6.52-6.87-10.57-13.98-15.3C13.69,28.38,8.7,29.43,8.7,29.43
	C5.25,31.33,7.18,39.04,9.55,40.82z"/>
<path d="M64.7,81.08c-3.34,2.84-9.7,18.89-10.36,20.73c-0.67,1.84-2.51,2.51-3.34,4.18c-0.84,1.67-3.84,2.34-7.19,2.17
	c-3.34-0.17-0.5-2.51-0.17-6.35c0.33-3.84,0.17-3.51,1.17-4.93c1-1.42,1.84-2.26,3.18-4.76c1.34-2.51,1.84-3.68,2.34-5.18
	c0.5-1.5,2.01-5.68,3.51-8.19c0.2-0.34,0.34-0.63,0.51-0.94c0.25-0.31,0.45-0.66,0.56-1.09c0-0.01,0-0.02,0.01-0.03
	c0.63-1.4,0.92-2.47,1.27-3.28c0.5-1.17,0-1.5,0-1.5l-0.3-0.13c0.28-1.83,0.51-3.49,0.97-5.05c0.84-2.84,10.87-21.73,11.7-23.57
	c0.84-1.84,4.85-1.84,6.69-2.17c1.84-0.33,5.35-7.52,6.85-10.03c1.5-2.51,4.18-4.51,7.02-3.68c2.84,0.84,0.67,3.51-0.99,8.36
	s-7.36,5.35-8.03,7.86c-0.67,2.51,0,9.36,0,9.36s0.17,3.18,2.17,2.67c1.14-0.29,5.69-4.19,10.87-7.36c3.9-2.38,8.79-3.99,9.36-5.35
	c0.4-0.95,2.81-1.87,3.68-2.64c2.02-1.81,2.96-2.83,2.84-1.54c-0.17,1.84-1.17,5.85,2.01,4.85c3.18-1,9.03-5.18,14.38-8.36
	c5.35-3.18,5.18-7.69,3.51-10.36c-1.67-2.67-12.04-5.18-16.72-1.17c-4.68,4.01-5.52,2.84-5.52,0s4.68-9.19,7.86-12.37
	c3.18-3.18,2.67-4.01,0-7.86s-10.7-2.01-13.71-1.17c-3.01,0.84-9.03,2.84-13.21,8.19S66.03,42.13,63.03,46.64
	C60.02,51.15,46.29,78.9,46.29,78.9h0c-3.06,5.32-6.81,12.07-7.67,14.55c-1.5,4.35-10.03,23.57-10.03,23.57l-2.34,1.17
	c0,0-0.33,1.84-1.34,2.34c-1,0.5-2.01,2.17-3.06,2.17s-2.46-1.5-2.63-2.01c-0.17-0.5-1.84-3.34-1.84-3.34s0.67-2.01,0-3.51
	c-0.67-1.5-0.67-2.51-0.67-3.01c0-0.5-1-0.84-1.67-1.84c-0.67-1-1.67-3.01-3.51-4.85c-1.84-1.84-4.72-4.35-4.72-4.35l-4.81-5.52
	c-3.01-3.45-1.67,2.01,1.34,5.85c3.01,3.84,3.51,5.18,6.02,12.04c2.51,6.85,3.84,26.91,3.84,26.91l0.33,8.36l1.5,2.51
	c0,0,0,3.34-0.17,13.88c-0.17,10.53-3.84,18.89-3.84,18.89s-2.17,4.85,0.67,10.53c2.84,5.68,9.7,5.68,13.21,4.01
	c3.51-1.67,4.68-1.67,9.7-1.5s4.35-6.52,3.84-10.36c-0.5-3.84-0.17-12.7,0.17-18.56c0.33-5.85,1.17-11.7,2.51-16.22
	c1.34-4.51,5.52-15.55,7.19-21.4c1.67-5.85,4.68-16.38,7.19-23.07C58.01,99.47,64.7,81.08,64.7,81.08z"/>
<path d="M92.28,152.13c1.5-3.34,1.34-4.68-1.34-2.17c-2.67,2.51-1.84,5.18-4.18,5.35c-2.34,0.17-2.01-2.51-2.17-4.51
	c-0.17-2.01,0.5-1.5-1.17-4.35c-1.67-2.84-1.67-3.51-2.67-4.85c-1-1.34-3.51-1.6-3.84-4.35c-0.33-2.74,2.03-6.42,2.04-6.43
	c5.22-8.13,14.27-22.28,15.68-24.99c2.01-3.84,13.87-15.21,14.38-16.22c0.5-1,4.35-1.17,7.69-2.51c3.34-1.34,4.01-5.68,4.01-8.86
	s-3.34-3.01-4.85-3.01c-1.5,0-2.17,0.17-3.68,2.51c-1.5,2.34-7.86,0.67-7.69,0c0.17-0.67,1.17-2.34,1.67-3.01
	c0.5-0.67,1.34-3.68,1.34-3.68l2.34-4.18l2.34-2.92l4.85-5.6c0,0,4.85-5.85,4.85-7.86s-8.02-2.17-10.2-0.84
	c-2.17,1.34-2.84,5.18-3.01,4.21c-0.17-0.97-2.34-1.2-7.19,0c-4.85,1.2-8.19,0.81-8.19,0.14c0-0.67-2.17,1.34-2.17,1.34l-1,2.01
	c0,0-1.5,0.17-3.01,1l-3.84,1.17c0,0-1.67,0.5-1.34,1.5c0.33,1,0.5,2.34,0.33,2.93s1.67,0.92,1.67,0.92l0.5,3.34
	c0,0,1,1.17,1.67,2.17c0.67,1,1.17,1.84,2.84,3.34c1.67,1.5,3.84,2.01,5.35,1.67c1.5-0.33,2.17-1.67,3.34-2.67
	c1.17-1,1-2.84,2.01-4.68c1-1.84,3.84-1.17,3.84-0.33c0,0.84,0,2.84,0.33,4.68c0.33,1.84-2.17,3.84-2.67,4.85
	c-0.5,1-1,1.67-2.34,2.08c-1.34,0.41-4.85,0.59-6.69,1.43c-1.84,0.84-3.51-0.84-5.52-1.43c-2.01-0.59-4.35,0.76-5.35,1.26
	c-1,0.5-1.5,1.84-3.34,3.18c-1.84,1.34-2.51,0.67-3.01,3.51s-0.67,2.17-2.01,4.51c-1.34,2.34-1.5,2.51-1,3.68
	c0.5,1.17,1.67,0.33,2.51,2.34c0.84,2.01,0.67,4.18,0,6.85c-0.67,2.67,2.17,4.51,3.51,2.84c1.34-1.67,6.02-5.68,10.21-6.19
	c4.19-0.5,1.83,5.35,0,7.86c-1.83,2.51-5.36,7.86-5.36,7.86l-3.34,1.34c0,0,0.67,1.67-0.17,4.01c-0.84,2.34-12.54,16.55-12.54,16.55
	l0.77-0.21c-0.24,0.63,0.02,1.13,1.07,1.38c5.52,1.34,6.52,2.84,7.86,5.35c1.34,2.51,1,4.18,1.34,6.69c0.33,2.51,0.5,4.01,1.17,4.51
	c0.67,0.5,1.5,2.01,1.34,2.51c-0.17,0.5,0.02,2.67,0.02,2.67l-2.53,2.84c0,0-7.69,11.37-11.03,14.88c-3.34,3.51-9.03,10.7-9.86,12.2
	c-0.84,1.5-6.35,6.97-7.02,9.09c-0.67,2.11-1.34,4.79,2.01,6.13c3.34,1.34,5.52,3.01,9.53,1.34c4.01-1.67,8.36-3.06,10.87-7.46
	c2.51-4.41,6.35-9.25,7.19-12.43c0.84-3.18,3.01-9.7,2.84-14.88c-0.17-5.18,2.67-8.69,5.18-13.04
	C89.94,156.14,90.78,155.47,92.28,152.13z M76.4,187.57c0,2.17-1.5,2.51-2.84,4.51c-1.34,2.01-3.01,4.18-4.85,6.15
	c-1.84,1.97-4.35,2.21-6.19,1.54c-1.84-0.67-1.67-1.34-2.51-3.01c-0.84-1.67,2.51-4.18,3.34-5.52c0.84-1.34,3.68-5.02,5.02-6.02
	c1.34-1,5.85-5.35,5.85-5.35c4.85-3.01,2.67,1.34,3.18,2.67C77.9,183.89,76.4,185.4,76.4,187.57z"/>
<path d="M183.72,192.92c0,0-11.53-10.03-17.05-11.7c0,0-1.17-3.51,0.17-7.19c1.34-3.68,3.01-4.35,3.34-8.19
	c0.33-3.84,2.01-7.48-1-12.1c-3.01-4.62-2.84-5.79-7.69-7.3c-4.85-1.5-9.03,0.84-12.54,2.01c-3.51,1.17-6.19,3.18-8.19,2.51
	c-2.01-0.67-1.17-1.84,0.5-4.51c1.67-2.67,1-4.35,1-5.68c0-1.34,1.67-0.17,2.17-1.84c0.5-1.67,1-4.28,1-4.28l1.34-2.74l1.67-2.17
	l2.01-2.34c0,0,1.84-8.02-4.85-10.2c-6.69-2.17-6.02,2.34-7.69,3.68c-1.67,1.34-1.34,1.67-3.68,2.51c-2.34,0.84-1.93,1.63-4.32,1.17
	c-0.92-0.18-1.76,0.01-2.44,0.31c0.23-2.66,0.14-5.3-0.26-7.5c-0.84-4.51-1.84-8.53-3.34-4.85c-1.5,3.68-2.51,21.06-2.51,21.06
	s-4.01,2.51-7.19,5.85c-3.18,3.34-7.36,7.19-7.78,7.86s-2.76-1.84-2.42-3.68c0.33-1.84-0.17-3.01-0.17-4.85
	c0-1.84-1.84-6.02-2.67-7.44c-0.84-1.42-2.51-4.09-4.35-2.92c-1.03,0.65-0.67,1.34,0,2.92c0.67,1.59,1.17,3.06,1,3.83
	s-0.17,3.44,1,5.45c1.17,2.01,1,3.34,1.17,4.51c0.17,1.17,1.17,7.02,0,9.03c-1.17,2.01-5.46,8.02-6.57,10.7s-4.61,11.8-5.12,14.51
	c-0.51,2.71-0.51,11.74-1.85,12.07c-1.34,0.33-2.34,6.79,1.17,7.32c3.51,0.54,5.18,0.2,8.36-2.47c0,0,1.67-1.34,2.01,1.17
	c0.33,2.51,1.84,0.67,4.18-2.67c2.34-3.34,8.19-7.52,9.53-10.7c0,0,3.18-0.17,4.01,1.84c0.84,2.01,2.67,4.51,2.84,6.69
	s4.35,1.84,3.51,0.33c-0.84-1.5,0.33-4.18-0.84-6.02c-1.17-1.84-4.68-7.19-5.35-8.53c-0.67-1.34-0.84-5.07,1.17-7.97
	c2.01-2.9,6.85-32.82,8.69-37.5c0.13-0.55,3.34-4.18,8.02-7.36c4.68-3.18,9.03-4.51,8.86-1.34c-0.17,3.18-1.5,10.03-2.84,12.37
	c-1.34,2.34-0.33,6.69-3.01,8.36c-2.67,1.67-2.3,1.5-3.24,3.84s-2.95,7.19,0.9,7.36c3.84,0.17,8.53-4.35,16.38-4.01
	c7.86,0.33,11.2,1.84,11.7,6.52s2.51,9.53,0,12.87c-2.51,3.34-1,6.69-4.18,6.35c-3.18-0.33-12.87-4.51-19.06-6.69
	c-6.19-2.17-9.86-1.17-5.52,2.34c4.35,3.51,13.54,8.86,16.22,14.04s-3.84,4.01-7.36,4.18c-3.51,0.17-6.19-1-9.7-3.34
	c-3.51-2.34-3.34,2.84,3.34,4.35c6.69,1.5,5.09,3.17,17.05,0c0,0,1.67-2.67,6.35,2.84c4.68,5.52,3.01,4.4,6.02,5.71
	c3.01,1.31,3.68,3.15,3.51,3.99c-0.17,0.84,8.19-0.21,11.53-4.45C184.06,196.6,187.73,195.76,183.72,192.92z M108.66,177.54
	c-1,1.5-2.51,6.19-3.68,7.36c-1.17,1.17-3.01,4.51-5.18,5.85c-2.17,1.34-3.68,2.67-5.35,3.18c-1.67,0.5-5.18,2.01-4.85-3.01
	s0.17-7.26,0.67-11.57s2.84-10.66,4.18-12.84c1.34-2.17,5.02-9.86,7.86-8.86c1.68,0.59,2.17,3.18,2.34,4.85s0.33,3.68,1.75,4.51
	c1.42,0.84-0.59,3.34,0,4.01c0.59,0.67,1.59,0.84,2.26,2.01C109.33,174.2,109.67,176.04,108.66,177.54z M119.36,143.1
	c-0.5,2.01-0.67,2.67-1.34,4.85s0,5.35-1,7.69c-1,2.34-1.5,5.52-2.34,8.02c-0.84,2.51-0.67,1.67-1.84,3.51
	c-1.17,1.84-1.84,0.84-2.67,0c-0.84-0.84-1-4.51-1.5-5.85c-0.5-1.34-1.34-4.85-2.43-6.81c-1.09-1.97-0.25-3.22,0.92-4.72
	c0,0,4.35-3.84,5.35-4.51c1-0.67,3.18-3.84,6.85-5.52C123.04,138.09,119.86,141.1,119.36,143.1z"/>
<path d="M249.64,59.52c3.57,1.78,9.81,6.46,12.7,4.23c2.9-2.23,5.13-5.13,5.35-7.13c0.22-2.01,0.22-3.57,0-6.02
	c-0.22-2.45-0.22-2.67-1.56-4.46c-1.34-1.78-4.67-10.18-5.57-5.98c0,0-0.67,6.15-3.34,8.63c-2.67,2.48-4.23,3.37-7.58,5.6
	C246.3,56.62,246.08,57.73,249.64,59.52z"/>
<path d="M322.53,112.79c6.02-5.8,9.58-6.91,11.81-10.48c2.23-3.57-1.56-11.37-6.02-11.81c-4.46-0.45-10.03-12.26-10.48-16.94
	c-0.45-4.68-8.47-13.6-13.15-14.04c-4.68-0.45-8.25,0.29-9.14,4.82c-0.89,4.54,2.23,11.6,4.23,14.98c2.01,3.38,4.46,8.06,4.9,9.39
	c0.45,1.34-1.11,4.04,0.45,5.14c1.56,1.1,4.01,2.22,2.45,4c-1.56,1.78-4.68,7.8-11.59,10.7c-6.91,2.9-24.3,11.81-26.52,14.27
	s-6.02,2.9-8.69,4.46c-2.67,1.56-7.58,8.02-6.02-4.01c1.56-12.04,1.11-16.94,0.89-17.83c-0.22-0.89,1.14-2.9,1.8-3.79
	c0.66-0.89,0-4.24,0-4.24v-5.57l2.66-2.67c0,0,2.67-11.14-5.8-12.71c-8.47-1.56-19.17,1.56-23.4,5.35
	c-4.24,3.79-9.14,2.9-12.48,4.68c-3.34,1.78-9.14,3.12-10.25,8.69c-0.37,1.87-3.57,3.79-1.11,5.57c2.45,1.78,5.8,5.13,12.04,5.8
	c6.24,0.67,8.02,2.23,13.37,2.23c5.35,0,7.36-0.31,6.24,2.29c-1.11,2.61-2.9,7.96-4.68,9.96c-1.78,2.01-9.81,14.93-11.48,16.27
	c-1.67,1.34-3.9,3.79-4.57,5.8c-0.67,2.01-1.34,4.46-4.01,6.24c-2.67,1.78-3.79,4.34-6.91,4.4c-3.12,0.06-9.81,2.51-9.81,6.08
	c0,3.57-0.89,7.25,8.02,10.09c8.92,2.84,17.61-4.07,22.51-6.52c4.9-2.45,9.14-3.57,9.81,1.56c0.67,5.13,3.57,6.69,6.02,8.92
	c2.45,2.23,4.68,4.83,6.91,4.98c2.23,0.15,3.12-3.2,3.12-5.65c0-2.45,2.23-10.92,1.11-13.15c-1.11-2.23-2.45-4.35-1.34-6.3
	c1.11-1.95,0.67-6.85,0.67-6.85s32.54-19.17,38.11-22.96c5.57-3.79,11.37-6.02,11.81-1.34s-2.23,15.38-4.01,18.28
	c-1.78,2.9-2.67,3.79-6.46,5.13c-3.79,1.34-6.69,0-8.02,3.34c-1.34,3.34-6.02,10.48-0.22,10.25c5.8-0.22,14.04-1.11,14.04-1.11
	s3.57,2.23,2.01,4.9c-1.56,2.67-4.01,4.57-7.58,6.52c-3.57,1.95-12.48,6.57-13.37,8.94c-0.89,2.37,9.36,0.14,14.49-4.31
	s16.99-11.74,25.44-13.45c8.44-1.71,12.01-3.52,12.46-6.07c0.45-2.55-1.78-8.34-4.01-9.68c-2.23-1.34-5.22-1.34-7.51,0.45
	c-2.29,1.78-6.75,1.34-8.53-0.45c-1.78-1.78-2.67-5.87-1.56-7.84C312.28,135.52,316.51,118.58,322.53,112.79z"/>
</svg>
