<?xml version="1.0" encoding="utf-8"?>
<!-- Generator: Adobe Illustrator 23.0.3, SVG Export Plug-In . SVG Version: 6.00 Build 0)  -->
<svg version="1.1" id="Layer_1" xmlns="http://www.w3.org/2000/svg" xmlns:xlink="http://www.w3.org/1999/xlink" x="0px" y="0px"
	 viewBox="0 0 25.8 25.8" style="enable-background:new 0 0 25.8 25.8;" xml:space="preserve">
<style type="text/css">
	.st0{fill:#383838;}
</style>
<path class="st0" d="M25.8,24.4l-7.7-7.7c1.5-1.8,2.3-4,2.3-6.3c0-2.7-1-5.2-2.9-7.1l-0.1-0.1c-1.9-1.9-4.4-2.9-7-2.9c0,0,0,0,0,0
	c-2.7,0-5.2,1-7.1,2.9c-3.9,3.9-3.9,10.2,0,14.1c1.9,1.9,4.4,2.9,7.1,2.9c0,0,0,0,0,0c2.3,0,4.5-0.8,6.3-2.2l7.7,7.7L25.8,24.4z
	 M10.4,17.8C10.4,17.8,10.4,17.8,10.4,17.8c-2,0-3.9-0.8-5.3-2.2C2.2,12.7,2.2,8,5.1,5.1c1.4-1.4,3.3-2.2,5.3-2.2c0,0,0,0,0,0
	c2,0,3.9,0.8,5.3,2.2l0,0c1.4,1.4,2.1,3.3,2.2,5.2c0,2-0.8,3.9-2.2,5.3C14.3,17.1,12.4,17.8,10.4,17.8z"/>
</svg>
