<?xml version="1.0" encoding="utf-8"?>
<!-- Generator: Adobe Illustrator 23.0.3, SVG Export Plug-In . SVG Version: 6.00 Build 0)  -->
<svg version="1.1" id="Layer_1" xmlns="http://www.w3.org/2000/svg" xmlns:xlink="http://www.w3.org/1999/xlink" x="0px" y="0px"
	 viewBox="0 0 254.3 265.5" style="enable-background:new 0 0 254.3 265.5;" xml:space="preserve">
<style type="text/css">
	.st0{fill:#C1D0DB;}
	.st1{fill:#305572;}
	.st2{fill:#FFFFFF;}
	.st3{fill:#63BC39;}
</style>
<g id="New_Symbol">
</g>
<path class="st0" d="M251,102.5L139.9,8.3c-7.4-6.2-18.1-6.2-25.5,0L3.3,102.5l123.8,80.8L251,102.5z"/>
<path class="st1" d="M127.2,186.6c-0.6,0-1.3-0.2-1.8-0.5L1.5,105.3c-0.9-0.6-1.4-1.5-1.5-2.6c-0.1-1,0.4-2.1,1.2-2.7L112.3,5.8
	c8.6-7.3,21.2-7.3,29.8,0l111.1,94.2c0.8,0.7,1.2,1.7,1.2,2.7c-0.1,1-0.6,2-1.5,2.6L129,186.1C128.4,186.5,127.8,186.6,127.2,186.6z
	 M8.9,102.1l118.3,77.2l118.3-77.2L137.8,10.8c-6.1-5.2-15.1-5.2-21.2,0L8.9,102.1z"/>
<g>
	<polygon class="st2" points="211.7,202.3 42.6,202.3 42.6,57.7 80.5,20.4 211.7,20.4 	"/>
	<path class="st1" d="M211.7,205.7H42.6c-1.8,0-3.3-1.5-3.3-3.3V57.7c0-0.9,0.4-1.7,1-2.4L78.2,18c0.6-0.6,1.5-1,2.3-1h131.2
		c1.8,0,3.3,1.5,3.3,3.3v182C215.1,204.2,213.6,205.7,211.7,205.7z M45.9,199h162.5V23.7H81.9l-36,35.4V199z"/>
	<polygon class="st0" points="80.5,20.4 43.2,57.7 80.5,57.7 	"/>
	<path class="st1" d="M80.5,61.1H43.2c-1.3,0-2.6-0.8-3.1-2.1c-0.5-1.2-0.2-2.7,0.7-3.6L78.2,18c0.9-1,2.4-1.2,3.6-0.7
		c1.2,0.5,2.1,1.7,2.1,3.1v37.4C83.8,59.6,82.3,61.1,80.5,61.1z M51.2,54.4h26v-26L51.2,54.4z"/>
	<path class="st3" d="M128.1,123.2L98.8,93.9c-3.6-3.6-9.4-3.6-12.9,0c-3.6,3.6-3.6,9.4,0,12.9l29.3,29.3c1.8,1.8,4.1,2.7,6.5,2.7
		c2.3,0,4.7-0.9,6.5-2.7C131.7,132.6,131.7,126.8,128.1,123.2z"/>
	<path class="st3" d="M182.6,68.8c-3.6-3.6-9.4-3.6-12.9,0l-54.4,54.4c-3.6,3.6-3.6,9.4,0,12.9c1.8,1.8,4.1,2.7,6.5,2.7
		c2.3,0,4.7-0.9,6.5-2.7l54.4-54.4C186.1,78.2,186.1,72.4,182.6,68.8z"/>
</g>
<polygon class="st2" points="251,262.2 3.3,262.2 3.3,102.5 127.2,182.3 251,102.5 "/>
<path class="st1" d="M251,265.5H3.3c-1.8,0-3.3-1.5-3.3-3.3V102.5c0-1.2,0.7-2.3,1.7-2.9C2.8,99,4.1,99,5.1,99.7l122,78.7l122-78.7
	c1-0.7,2.3-0.7,3.4-0.1c1.1,0.6,1.7,1.7,1.7,2.9v159.7C254.3,264,252.8,265.5,251,265.5z M6.6,258.9h241V108.6L129,185.1
	c-1.1,0.7-2.5,0.7-3.6,0L6.6,108.6V258.9z"/>
<path class="st2" d="M251,262.2L139.9,168c-7.4-6.2-18.1-6.2-25.5,0L3.3,262.2H251z"/>
<path class="st1" d="M251,265.5H3.3c-1.4,0-2.6-0.9-3.1-2.2c-0.5-1.3-0.1-2.8,1-3.7l111.1-94.2c8.6-7.3,21.2-7.3,29.8,0l111.1,94.2
	c1.1,0.9,1.5,2.4,1,3.7C253.6,264.6,252.4,265.5,251,265.5z M12.4,258.9h229.6l-104.2-88.3c-6.1-5.2-15.1-5.2-21.2,0L12.4,258.9z"/>
</svg>
