<?xml version="1.0" encoding="utf-8"?>
<!-- Generator: Adobe Illustrator 23.0.3, SVG Export Plug-In . SVG Version: 6.00 Build 0)  -->
<svg version="1.1" id="Layer_1" xmlns="http://www.w3.org/2000/svg" xmlns:xlink="http://www.w3.org/1999/xlink" x="0px" y="0px"
	 viewBox="0 0 284 177" style="enable-background:new 0 0 284 177;" xml:space="preserve">
<g>
	
		<image style="overflow:visible;opacity:0.5;" width="374" height="267" xlink:href="DAF904E7.png"  transform="matrix(1 0 0 1 -45 -45)">
	</image>
	<g>
		<g>
			<path d="M8.7,34.3c2,1.5,2.1,3.8,2.1,3.8l0.7,3.2l0.8,4.9l4.6,1.4v4.1h2.3c2-1.2,4-2.3,8-0.3c1.5,0.8,4.1,3.3,4.5,2.1
				c0.5-2-1-9.4-1.7-12.8c-1-5.5-5.8-8.9-11.8-13S8,24.6,8,24.6C5.1,26.2,6.7,32.8,8.7,34.3z"/>
			<path d="M55.3,68.3c-2.8,2.4-8.2,16-8.8,17.5c-0.6,1.6-2.1,2.1-2.8,3.5c-0.7,1.4-3.3,2-6.1,1.8c-2.8-0.1-0.4-2.1-0.1-5.4
				s0.1-3,1-4.2c0.8-1.2,1.6-1.9,2.7-4c1.1-2.1,1.6-3.1,2-4.4s1.7-4.8,3-6.9c0.2-0.3,0.3-0.5,0.4-0.8c0.2-0.3,0.4-0.6,0.5-0.9
				c0,0,0,0,0,0c0.5-1.2,0.8-2.1,1.1-2.8c0.4-1,0-1.3,0-1.3l-0.3-0.1c0.2-1.5,0.4-3,0.8-4.3c0.7-2.4,9.2-18.4,9.9-19.9
				c0.7-1.6,4.1-1.6,5.7-1.8s4.5-6.4,5.8-8.5c1.3-2.1,3.5-3.8,5.9-3.1s0.6,3-0.8,7.1c-1.4,4.1-6.2,4.5-6.8,6.7c-0.6,2.1,0,7.9,0,7.9
				s0.1,2.7,1.8,2.3c1-0.2,4.8-3.5,9.2-6.2c3.3-2,7.4-3.4,7.9-4.5c0.3-0.8,2.4-1.6,3.1-2.2c1.7-1.5,2.5-2.4,2.4-1.3
				c-0.1,1.6-1,5,1.7,4.1c2.7-0.8,7.6-4.4,12.2-7.1c4.5-2.7,4.4-6.5,3-8.8c-1.4-2.3-10.2-4.4-14.1-1s-4.7,2.4-4.7,0s4-7.8,6.7-10.5
				c2.7-2.7,2.3-3.4,0-6.7c-2.3-3.3-9.1-1.7-11.6-1C83.4,2.3,78.3,4,74.7,8.5S56.5,35.4,53.9,39.2C51.4,43,39.8,66.5,39.8,66.5l0,0
				C37.2,71,34,76.7,33.3,78.8c-1.3,3.7-8.5,19.9-8.5,19.9l-2,1c0,0-0.3,1.6-1.1,2c-0.9,0.4-1.7,1.8-2.6,1.8s-2.1-1.3-2.2-1.7
				c-0.2-0.4-1.6-2.8-1.6-2.8s0.6-1.7,0-3c-0.6-1.3-0.6-2.1-0.6-2.6c0-0.4-0.9-0.7-1.4-1.6c-0.6-0.8-1.4-2.6-3-4.1
				c-1.6-1.6-4-3.7-4-3.7l-4.1-4.7c-2.5-2.9-1.4,1.7,1.1,4.9c2.5,3.3,3,4.4,5.1,10.2s3.3,22.8,3.3,22.8l0.3,7.1l1.3,2.1
				c0,0,0,2.8-0.1,11.7s-3.3,16-3.3,16s-1.8,4.1,0.6,8.9c2.4,4.8,8.2,4.8,11.2,3.4c3-1.4,4-1.4,8.2-1.3s3.7-5.5,3.3-8.8
				c-0.4-3.3-0.1-10.8,0.1-15.7s1-9.9,2.1-13.7c1.1-3.8,4.7-13.2,6.1-18.1c1.4-4.9,4-13.9,6.1-19.5C49.7,83.9,55.3,68.3,55.3,68.3z"
				/>
			<path d="M78.7,128.4c1.3-2.8,1.1-4-1.1-1.8c-2.3,2.1-1.6,4.4-3.5,4.5s-1.7-2.1-1.8-3.8c-0.1-1.7,0.4-1.3-1-3.7
				c-1.4-2.4-1.4-3-2.3-4.1s-3-1.4-3.3-3.7s1.7-5.4,1.7-5.4c4.4-6.9,12.1-18.8,13.3-21.1c1.7-3.3,11.7-12.9,12.2-13.7s3.7-1,6.5-2.1
				c2.8-1.1,3.4-4.8,3.4-7.5c0-2.7-2.8-2.5-4.1-2.5s-1.8,0.1-3.1,2.1c-1.3,2-6.7,0.6-6.5,0s1-2,1.4-2.5c0.4-0.6,1.1-3.1,1.1-3.1
				l2-3.5l2-2.5l4.1-4.7c0,0,4.1-5,4.1-6.7s-6.8-1.8-8.6-0.7s-2.4,4.4-2.6,3.6c-0.1-0.8-2-1-6.1,0s-6.9,0.7-6.9,0.1
				c0-0.6-1.8,1.1-1.8,1.1l-0.8,1.7c0,0-1.3,0.1-2.6,0.8l-3.3,1c0,0-1.4,0.4-1.1,1.3c0.3,0.8,0.4,2,0.3,2.5s1.4,0.8,1.4,0.8l0.4,2.8
				c0,0,0.8,1,1.4,1.8c0.6,0.8,1,1.6,2.4,2.8c1.4,1.3,3.3,1.7,4.5,1.4c1.3-0.3,1.8-1.4,2.8-2.3c1-0.8,0.8-2.4,1.7-4
				c0.8-1.6,3.3-1,3.3-0.3c0,0.7,0,2.4,0.3,4c0.3,1.6-1.8,3.3-2.3,4.1c-0.4,0.8-0.8,1.4-2,1.8c-1.1,0.3-4.1,0.5-5.7,1.2
				s-3-0.7-4.7-1.2s-3.7,0.6-4.5,1.1s-1.3,1.6-2.8,2.7c-1.6,1.1-2.1,0.6-2.5,3c-0.4,2.4-0.6,1.8-1.7,3.8s-1.3,2.1-0.8,3.1
				c0.4,1,1.4,0.3,2.1,2c0.7,1.7,0.6,3.5,0,5.8c-0.6,2.3,1.8,3.8,3,2.4c1.1-1.4,5.1-4.8,8.6-5.2c3.5-0.4,1.6,4.5,0,6.7
				s-4.5,6.7-4.5,6.7l-2.8,1.1c0,0,0.6,1.4-0.1,3.4c-0.7,2-10.6,14-10.6,14l0.7-0.2c-0.2,0.5,0,0.9,0.9,1.2c4.7,1.1,5.5,2.4,6.6,4.5
				c1.1,2.1,0.8,3.5,1.1,5.7s0.4,3.4,1,3.8c0.6,0.4,1.3,1.7,1.1,2.1s0,2.3,0,2.3l-2.1,2.4c0,0-6.5,9.6-9.3,12.6s-7.6,9.1-8.3,10.3
				c-0.7,1.3-5.4,5.9-5.9,7.7c-0.6,1.8-1.1,4.1,1.7,5.2c2.8,1.1,4.7,2.6,8.1,1.1c3.4-1.4,7.1-2.6,9.2-6.3c2.1-3.7,5.4-7.8,6.1-10.5
				s2.6-8.2,2.4-12.6c-0.1-4.4,2.3-7.4,4.4-11C76.7,131.8,77.4,131.2,78.7,128.4z M65.2,158.4c0,1.8-1.3,2.1-2.4,3.8
				c-1.1,1.7-2.5,3.5-4.1,5.2c-1.6,1.7-3.7,1.9-5.2,1.3c-1.6-0.6-1.4-1.1-2.1-2.6c-0.7-1.4,2.1-3.5,2.8-4.7c0.7-1.1,3.1-4.2,4.2-5.1
				c1.1-0.9,5-4.5,5-4.5c4.1-2.6,2.3,1.1,2.7,2.3C66.5,155.3,65.2,156.6,65.2,158.4z"/>
			<path d="M156,162.9c0,0-9.8-8.5-14.4-9.9c0,0-1-3,0.1-6.1s2.6-3.7,2.8-6.9s1.7-6.3-0.9-10.2c-2.6-3.9-2.4-4.9-6.5-6.2
				s-7.6,0.7-10.6,1.7s-5.2,2.7-6.9,2.1s-1-1.6,0.4-3.8c1.4-2.3,0.8-3.7,0.8-4.8s1.4-0.1,1.8-1.6c0.4-1.4,0.8-3.6,0.8-3.6l1.1-2.3
				l1.4-1.8l1.7-2c0,0,1.6-6.8-4.1-8.6s-5.1,2-6.5,3.1c-1.4,1.1-1.1,1.4-3.1,2.1s-1.6,1.4-3.7,1c-0.8-0.2-1.5,0-2.1,0.3
				c0.2-2.3,0.1-4.5-0.2-6.3c-0.7-3.8-1.6-7.2-2.8-4.1c-1.3,3.1-2.1,17.8-2.1,17.8s-3.4,2.1-6.1,4.9c-2.7,2.8-6.2,6.1-6.6,6.7
				s-2.3-1.6-2.1-3.1c0.3-1.6-0.1-2.6-0.1-4.1c0-1.6-1.6-5.1-2.3-6.3c-0.7-1.2-2.1-3.5-3.7-2.5c-0.9,0.6-0.6,1.1,0,2.5
				c0.6,1.3,1,2.6,0.8,3.2s-0.1,2.9,0.8,4.6s0.8,2.8,1,3.8s1,5.9,0,7.6c-1,1.7-4.6,6.8-5.6,9.1s-3.9,10-4.3,12.3
				c-0.4,2.3-0.4,9.9-1.6,10.2c-1.1,0.3-2,5.7,1,6.2s4.4,0.2,7.1-2.1c0,0,1.4-1.1,1.7,1c0.3,2.1,1.6,0.6,3.5-2.3s6.9-6.4,8.1-9.1
				c0,0,2.7-0.1,3.4,1.6c0.7,1.7,2.3,3.8,2.4,5.7s3.7,1.6,3,0.3c-0.7-1.3,0.3-3.5-0.7-5.1c-1-1.6-4-6.1-4.5-7.2s-0.7-4.3,1-6.7
				c1.7-2.4,5.8-27.8,7.3-31.7c0.1-0.5,2.8-3.5,6.8-6.2c4-2.7,7.6-3.8,7.5-1.1c-0.1,2.7-1.3,8.5-2.4,10.5c-1.1,2-0.3,5.7-2.6,7.1
				c-2.3,1.4-1.9,1.3-2.7,3.3c-0.8,2-2.5,6.1,0.8,6.2s7.2-3.7,13.9-3.4c6.6,0.3,9.5,1.6,9.9,5.5c0.4,4,2.1,8.1,0,10.9
				s-0.9,5.7-3.5,5.4c-2.7-0.3-10.9-3.8-16.1-5.7s-8.3-1-4.7,2c3.7,3,11.4,7.5,13.7,11.9c2.3,4.4-3.3,3.4-6.2,3.5
				c-3,0.1-5.2-0.9-8.2-2.8c-3-2-2.8,2.4,2.8,3.7c5.7,1.3,4.3,2.7,14.4,0c0,0,1.4-2.3,5.4,2.4c4,4.7,2.6,3.7,5.1,4.8
				c2.6,1.1,3.1,2.7,3,3.4c-0.1,0.7,6.9-0.2,9.8-3.8C156.3,166,159.4,165.3,156,162.9z M92.5,149.9c-0.8,1.3-2.1,5.2-3.1,6.2
				s-2.6,3.8-4.4,4.9c-1.8,1.1-3.1,2.3-4.5,2.7c-1.4,0.4-4.4,1.7-4.1-2.6c0.3-4.2,0.1-6.1,0.6-9.8c0.4-3.6,2.4-9,3.5-10.9
				c1.1-1.8,4.2-8.3,6.7-7.5c1.4,0.5,1.8,2.7,2,4.1c0.1,1.4,0.3,3.1,1.5,3.8c1.2,0.7-0.5,2.8,0,3.4c0.5,0.6,1.3,0.7,1.9,1.7
				C93.1,147.1,93.4,148.6,92.5,149.9z M101.6,120.8c-0.4,1.7-0.6,2.3-1.1,4.1c-0.6,1.8,0,4.5-0.8,6.5c-0.8,2-1.3,4.7-2,6.8
				c-0.7,2.1-0.6,1.4-1.6,3s-1.6,0.7-2.3,0c-0.7-0.7-0.8-3.8-1.3-4.9c-0.4-1.1-1.1-4.1-2.1-5.8c-0.9-1.7-0.2-2.7,0.8-4
				c0,0,3.7-3.3,4.5-3.8s2.7-3.3,5.8-4.7C104.7,116.5,102,119.1,101.6,120.8z"/>
			<path d="M211.8,50.1c3,1.5,8.3,5.5,10.8,3.6s4.3-4.3,4.5-6c0.2-1.7,0.2-3,0-5.1s-0.2-2.3-1.3-3.8c-1.1-1.5-3.9-8.6-4.7-5.1
				c0,0-0.6,5.2-2.8,7.3s-3.6,2.8-6.4,4.7C209,47.6,208.8,48.6,211.8,50.1z"/>
			<path d="M273.5,95.1c5.1-4.9,8.1-5.8,10-8.9c1.9-3-1.3-9.6-5.1-10c-3.8-0.4-8.5-10.4-8.9-14.3s-7.2-11.5-11.1-11.9
				c-4-0.4-7,0.2-7.7,4.1s1.9,9.8,3.6,12.7c1.7,2.9,3.8,6.8,4.1,7.9s-0.9,3.4,0.4,4.3s3.4,1.9,2.1,3.4c-1.3,1.5-4,6.6-9.8,9.1
				c-5.9,2.4-20.6,10-22.4,12.1c-1.9,2.1-5.1,2.4-7.4,3.8c-2.3,1.3-6.4,6.8-5.1-3.4s0.9-14.3,0.8-15.1s1-2.4,1.5-3.2
				c0.6-0.8,0-3.6,0-3.6v-4.7l2.3-2.3c0,0,2.3-9.4-4.9-10.8c-7.2-1.3-16.2,1.3-19.8,4.5s-7.7,2.4-10.6,4s-7.7,2.6-8.7,7.3
				c-0.3,1.6-3,3.2-0.9,4.7c2.1,1.5,4.9,4.3,10.2,4.9c5.3,0.6,6.8,1.9,11.3,1.9c4.5,0,6.2-0.3,5.3,1.9s-2.4,6.7-4,8.4
				c-1.5,1.7-8.3,12.6-9.7,13.8c-1.4,1.1-3.3,3.2-3.9,4.9c-0.6,1.7-1.1,3.8-3.4,5.3s-3.2,3.7-5.9,3.7s-8.3,2.1-8.3,5.1
				s-0.8,6.1,6.8,8.5s14.9-3.4,19-5.5c4.1-2.1,7.7-3,8.3,1.3c0.6,4.3,3,5.7,5.1,7.5s4,4.1,5.9,4.2c1.9,0.1,2.6-2.7,2.6-4.8
				c0-2.1,1.9-9.2,0.9-11.1c-0.9-1.9-2.1-3.7-1.1-5.3c0.9-1.6,0.6-5.8,0.6-5.8s27.5-16.2,32.2-19.4c4.7-3.2,9.6-5.1,10-1.1
				s-1.9,13-3.4,15.5c-1.5,2.4-2.3,3.2-5.5,4.3c-3.2,1.1-5.7,0-6.8,2.8c-1.1,2.8-5.1,8.9-0.2,8.7s11.9-0.9,11.9-0.9s3,1.9,1.7,4.1
				c-1.3,2.3-3.4,3.9-6.4,5.5c-3,1.6-10.6,5.6-11.3,7.6s7.9,0.1,12.3-3.6c4.3-3.8,14.4-9.9,21.5-11.4c7.1-1.4,10.2-3,10.5-5.1
				c0.4-2.1-1.5-7.1-3.4-8.2c-1.9-1.1-4.4-1.1-6.4,0.4c-1.9,1.5-5.7,1.1-7.2-0.4c-1.5-1.5-2.3-5-1.3-6.6
				C264.8,114.4,268.4,100,273.5,95.1z"/>
		</g>
	</g>
</g>
</svg>
